HIERARCHY
ROOT Hips
{
	OFFSET 0.00000 0.00000 0.00000
	CHANNELS 6 Xposition Yposition Zposition Zrotation Yrotation Xrotation 
	JOINT LHipJoint
	{
		OFFSET 0 0 0
		CHANNELS 3 Zrotation Yrotation Xrotation
		JOINT LeftHip
		{
			OFFSET 1.59801 -1.77853 0.57028
			CHANNELS 3 Zrotation Yrotation Xrotation
			JOINT LeftKnee
			{
				OFFSET 2.39439 -6.57854 0.00000
				CHANNELS 3 Zrotation Yrotation Xrotation
				JOINT LeftAnkle
				{
					OFFSET 2.69334 -7.39989 0.00000
					CHANNELS 3 Zrotation Yrotation Xrotation
					JOINT LeftToe
					{
						OFFSET 0.09553 -0.26245 1.73747
						CHANNELS 3 Zrotation Yrotation Xrotation
						End Site
						{
							OFFSET 0.00000 -0.00000 0.89391
						}
					}
				}
			}
		}
	}
	JOINT RHipJoint
	{
		OFFSET 0 0 0
		CHANNELS 3 Zrotation Yrotation Xrotation
		JOINT RightHip
		{
			OFFSET -1.54704 -1.77852 0.57028
			CHANNELS 3 Zrotation Yrotation Xrotation
			JOINT RightKnee
			{
				OFFSET -2.40286 -6.60180 0.00000
				CHANNELS 3 Zrotation Yrotation Xrotation
				JOINT RightAnkle
				{
					OFFSET -2.63873 -7.24984 0.00000
					CHANNELS 3 Zrotation Yrotation Xrotation
					JOINT RightToe
					{
						OFFSET -0.15631 -0.42945 1.84436
						CHANNELS 3 Zrotation Yrotation Xrotation
						End Site
						{
							OFFSET -0.00000 -0.00000 0.95734
						}
					}
				}
			}
		}
	}
	JOINT lowerback
	{
		OFFSET 0 0 0
		CHANNELS 3 Zrotation Yrotation Xrotation
		JOINT Chest
		{
			OFFSET -0.00436 1.89866 -0.04018
			CHANNELS 3 Zrotation Yrotation Xrotation
			JOINT Chest2
			{
				OFFSET 0.02031 1.88273 0.09634
				CHANNELS 3 Zrotation Yrotation Xrotation
				JOINT lowerneck
				{
					OFFSET 0 0 0
					CHANNELS 3 Zrotation Yrotation Xrotation
					JOINT Neck
					{
						OFFSET -0.13105 1.89371 0.23083
						CHANNELS 3 Zrotation Yrotation Xrotation
						JOINT Head
						{
							OFFSET 0.17062 1.83990 -0.54062
							CHANNELS 3 Zrotation Yrotation Xrotation
							End Site
							{
								OFFSET 0.04576 1.94782 -0.21839
							}
						}
					}
				}
				JOINT LeftCollar
				{
					OFFSET 0 0 0
					CHANNELS 3 Zrotation Yrotation Xrotation
					JOINT LeftShoulder
					{
						OFFSET 3.12424 1.09204 0.22226
CHANNELS 3 Zrotation Xrotation Yrotation
						JOINT LeftElbow
						{
OFFSET 0 -5.292770 0.000000
CHANNELS 3 Zrotation Xrotation Yrotation
							JOINT LeftWrist
							{
OFFSET 0 -2.852260 0.000000
CHANNELS 3 Zrotation Xrotation Yrotation
								JOINT lhand
								{
									OFFSET 0 0 0
CHANNELS 3 Zrotation Xrotation Yrotation
									JOINT LFingers
									{
OFFSET 0 -0.602100 0.000000
CHANNELS 3 Zrotation Xrotation Yrotation
										End Site
										{
OFFSET 0 -0.485430 0.000000
										}
									}
								}
								JOINT LThumb
								{
OFFSET 0 0.000000 0.000000
CHANNELS 3 Zrotation Xrotation Yrotation
									End Site
									{
OFFSET 0 -0.492840 0.492840
									}
								}
							}
						}
					}
				}
				JOINT RightCollar
				{
					OFFSET 0 0 0
					CHANNELS 3 Zrotation Yrotation Xrotation
					JOINT RightShoulder
					{
						OFFSET -2.91709 1.01504 0.30199
CHANNELS 3 Zrotation Xrotation Yrotation
						JOINT RightElbow
						{
OFFSET 0 -5.133040 0.000000
CHANNELS 3 Zrotation Xrotation Yrotation
							JOINT RightWrist
							{
OFFSET 0 -2.743050 0.000000
CHANNELS 3 Zrotation Xrotation Yrotation
								JOINT rhand
								{
									OFFSET 0 0 0
CHANNELS 3 Zrotation Xrotation Yrotation
									JOINT RFingers
									{
OFFSET 0 -0.767980 0.000000
CHANNELS 3 Zrotation Xrotation Yrotation
										End Site
										{
OFFSET 0 -0.619160 0.000000
										}
									}
								}
								JOINT RThumb
								{
OFFSET 0 0.000000 0.000000
CHANNELS 3 Zrotation Xrotation Yrotation
									End Site
									{
OFFSET 0 -0.628620 0.628620
									}
								}
							}
						}
					}
				}
			}
		}
	}
}
MOTION
Frames: 5
Frame Time: 0.008333333333333333
1.605794 16.750959 0.017292 8.762757 -18.317052 -6.247841 0.000000 0.000000 0.000000 -33.474188 5.962153 -2.888127 1.849723 8.545846 24.384572 1.510007 -2.289616 -22.607373 0.020977 -0.935213 -2.570636 0.000000 0.000000 0.000000 4.565244 18.031004 -5.050285 -3.679906 -11.721723 34.754619 -1.691906 5.893537 -23.399546 -1.456534 7.628082 -21.590154 5.238713 -5.642848 -1.535171 9.609993 -7.186788 -5.659333 7.349411 -3.614300 -4.459225 -5.686183 -3.353097 -19.387718 -6.550170 -1.934387 13.079433 -1.474804 -1.886109 7.216349 0.000000 0.000000 0.000000 122.473078 -47.412380 87.242282 6.652697 -11.346294 0.661636 -21.702383 51.777494 -21.217015 0.000000 0.000000 0.000000 -7.125000 0.000000 0.000000 -45.623531 45.915407 1.312003 0.000000 0.000000 0.000000 -24.576921 -32.643614 56.791468 -134.769405 -50.880650 -97.582434 0.739733 -12.789629 -16.048982 0.000000 0.000000 0.000000 7.125000 0.000000 0.000000 18.859680 14.483719 14.357389
1.787983 16.574452 0.062849 11.264677 -27.072290 -7.011627 0.000000 0.000000 0.000000 -36.316601 10.057028 -7.844456 2.305921 9.476046 27.296248 1.825025 -0.133465 -25.535184 0.146507 -2.466112 -6.795559 0.000000 0.000000 0.000000 1.353579 24.938017 -9.989235 -4.696160 -13.033254 39.493122 -1.788310 9.267659 -23.980830 -1.496818 7.728216 -21.891524 8.496524 -6.555325 0.116331 10.212996 -8.238922 -4.610114 6.403657 -4.249527 -4.589978 -4.073344 -1.589003 -17.174292 -6.378005 -0.712336 5.180949 -1.404566 -0.896332 4.318751 0.000000 0.000000 0.000000 112.804054 -42.620836 108.132313 7.787929 -13.208590 0.903084 -21.547944 76.036654 -19.302268 0.000000 0.000000 0.000000 -7.125000 0.000000 0.000000 -44.250946 44.438967 -0.776411 0.000000 0.000000 0.000000 -21.197010 -23.185541 52.445586 -142.440185 -46.555731 -103.354751 -0.765920 -15.100788 -16.346638 0.000000 0.000000 0.000000 7.125000 0.000000 0.000000 17.871172 14.152829 13.652896
1.849000 16.504283 0.144307 12.965786 -32.765600 -8.830667 0.000000 0.000000 0.000000 -38.005994 12.561403 -8.807151 2.367834 9.593634 27.670468 1.916133 2.686907 -27.231287 0.326091 -3.668548 -10.146281 0.000000 0.000000 0.000000 -0.436903 26.839908 -12.122715 -4.998618 -13.382235 40.816682 -1.620590 13.822529 -23.376016 -1.552159 7.863131 -22.299127 9.986001 -6.689133 -0.063721 10.041502 -8.572988 -3.451756 5.301738 -4.442936 -3.492829 -3.860283 -1.418815 -16.344856 -5.748070 -0.662440 4.855057 -1.224861 -0.800885 4.084584 0.000000 0.000000 0.000000 106.088727 -42.031708 107.923769 7.874106 -13.348553 0.922822 -19.746509 78.670694 -20.430210 0.000000 0.000000 0.000000 -7.125000 0.000000 0.000000 -43.653549 45.584388 0.784944 0.000000 0.000000 0.000000 -19.153307 -26.384393 48.669211 -143.885939 -45.591399 -104.396109 -3.148637 -14.052006 -15.598842 0.000000 0.000000 0.000000 7.125000 0.000000 0.000000 16.379786 14.773392 12.178030
1.772504 16.565657 0.203365 11.207483 -33.222198 -8.788803 0.000000 0.000000 0.000000 -36.229198 12.222440 -6.919769 2.262379 9.392512 27.030987 1.887156 3.981661 -27.625631 0.292376 -3.476838 -9.609441 0.000000 0.000000 0.000000 1.916749 25.612409 -10.393656 -4.617537 -12.939562 39.142883 -1.375215 15.342989 -22.103642 -1.277751 7.163033 -20.199592 10.107236 -6.603022 -0.673981 10.540557 -8.474232 -4.206208 5.764173 -4.416977 -3.895870 -4.395262 -2.405721 -15.632207 -4.988700 -1.798871 7.877739 -1.017142 -1.397805 4.911167 0.000000 0.000000 0.000000 98.274080 -46.501804 79.636812 6.954403 -11.844227 0.722294 -18.906748 56.395956 -18.107994 0.000000 0.000000 0.000000 -7.125000 0.000000 0.000000 -41.591352 43.850166 -1.454043 0.000000 0.000000 0.000000 -20.356773 -37.981038 41.233789 -142.958126 -46.216182 -103.729716 -1.134328 -11.813285 -15.854215 0.000000 0.000000 0.000000 7.125000 0.000000 0.000000 17.670803 14.608493 13.302206
1.588224 16.675720 0.220275 8.095352 -29.555832 -8.090799 0.000000 0.000000 0.000000 -32.955901 9.961678 -3.239939 2.097432 9.066070 26.002267 1.897557 3.462702 -27.451243 0.105582 -2.086071 -5.744005 0.000000 0.000000 0.000000 6.379323 23.404740 -5.448753 -3.878880 -11.997230 35.722443 -1.465126 12.115901 -22.026179 -1.286417 7.186575 -20.269397 9.043791 -6.064669 -2.065038 10.146812 -7.866139 -5.192529 5.790201 -4.098936 -4.074634 -6.092532 -4.419002 -14.524455 -1.846220 -4.535270 9.006916 0.000321 -2.579613 5.175920 0.000000 0.000000 0.000000 84.785312 -53.617678 34.349178 13.062138 -21.373529 2.479147 -20.228512 13.952152 -19.175861 0.000000 0.000000 0.000000 -7.125000 0.000000 0.000000 -43.213025 44.523964 -0.634309 0.000000 0.000000 0.000000 -28.209621 -54.682247 25.446100 -138.927971 -48.691245 -100.758954 -2.034236 -15.306748 -13.565796 0.000000 0.000000 0.000000 7.125000 0.000000 0.000000 17.263812 16.761616 12.119031
